Fly_normalized_Motion_pl10
version=1
nRows=14
nColumns=43
inDegrees=yes
endheader
time		pelvis_tilt		pelvis_list		pelvis_rotation		pelvis_tx		pelvis_ty		pelvis_tz		hip_flexion_r		hip_adduction_r		hip_rotation_r		knee_angle_r		ankle_angle_r		subtalar_angle_r		mtp_angle_r		hip_flexion_l		hip_adduction_l		hip_rotation_l		knee_angle_l		ankle_angle_l		subtalar_angle_l		mtp_angle_l		lumbar_extension		lumbar_bending		lumbar_rotation		neck_flexion		neck_lateral_bending		neck_rotation		arm_flex_r		arm_add_r		arm_rot_r		elbow_flex_r		pro_sup_r		wrist_flex_r		wrist_dev_r		hand_finger_flex_r		arm_flex_l		arm_add_l		arm_rot_l		elbow_flex_l		pro_sup_l		wrist_flex_l		wrist_dev_l		hand_finger_flex_l		
0.510000		6.412994		-21.283614		98.657298		0.003715		1.699995		1.252142		82.103903		-10.345847		-8.814756		-87.328873		2.313055		5.880246		7.509576		84.615198		-0.963832		10.293866		-95.949562		17.977542		0.145143		-17.592786		-31.628763		7.270574		-2.352899		23.580051		3.183924		4.177396		83.298147		-23.661462		17.188190		64.049008		96.887720		-35.353963		-1.774784		48.929185		104.468561		-34.364266		62.890263		63.589248		108.469550		-42.942671		12.888771		84.875960		
0.514015		6.340129		-20.995807		98.641486		0.003558		1.696192		1.243851		81.678737		-10.260276		-8.883016		-85.349037		1.324006		6.124323		7.681503		84.335212		-0.749710		10.244005		-94.158707		16.654577		0.629991		-17.664229		-31.869644		7.325170		-2.236320		23.395050		3.119743		4.043945		81.631565		-23.721349		16.451458		63.222003		96.758974		-35.654210		-1.383338		48.875614		102.786986		-35.253738		63.044845		63.192488		108.673175		-42.917213		13.084494		85.056432		
0.518030		6.288484		-20.730429		98.599248		0.003381		1.692224		1.235323		81.212719		-10.146775		-8.981938		-83.367298		0.302555		6.067163		7.881894		84.005527		-0.598362		10.187436		-92.329624		15.340755		0.872605		-17.676483		-32.051841		7.404020		-2.056088		23.145172		2.960669		3.894301		79.888645		-23.803618		15.693058		62.367498		96.847227		-36.016115		-1.052441		48.766195		100.796547		-36.123900		62.837276		62.779504		109.141875		-43.100566		13.246590		85.258548		
0.522045		6.420978		-20.563907		98.540551		0.002996		1.688000		1.226591		80.736281		-9.936101		-9.311635		-81.308499		-0.834549		5.332405		8.720051		83.742091		-0.528041		10.252639		-90.500833		14.112522		0.664757		-17.205330		-32.070450		7.724742		-1.732795		22.863722		2.423106		3.769098		78.155632		-23.910000		15.105910		61.497709		97.731972		-36.118927		-0.528352		48.478440		98.049607		-36.983423		61.461584		62.348002		111.129007		-43.485765		13.473794		86.004159		
0.526061		6.431777		-20.297282		98.490713		0.002752		1.683674		1.217768		80.140438		-9.776061		-9.442593		-79.315603		-1.826509		5.080176		9.202335		83.323475		-0.475220		10.236112		-88.642894		12.817608		0.806686		-16.878016		-32.191665		7.880547		-1.539432		22.550166		2.181814		3.666886		76.434229		-24.062351		14.561774		60.513515		97.917862		-36.107398		0.080598		48.218456		95.782523		-37.914310		60.937062		61.899718		112.035888		-43.532171		13.789042		86.411085		
0.530076		6.395185		-20.094310		98.419753		0.002522		1.679056		1.208862		79.552448		-9.644744		-9.551679		-77.333033		-2.505439		4.780578		9.541983		82.866293		-0.410933		10.183671		-86.730291		11.945564		0.821183		-16.582791		-32.233599		7.956651		-1.363529		22.335512		1.978365		3.601533		74.663456		-24.468781		14.335049		59.600462		98.053129		-36.005953		0.586967		48.005212		93.627244		-38.910238		60.713175		61.488237		112.670779		-43.538858		14.054115		86.674576		
0.534091		6.319615		-19.652013		98.291714		0.002451		1.674694		1.199658		78.715384		-9.459948		-9.589627		-75.415510		-3.764473		4.407237		9.569828		82.211280		-0.494661		10.041822		-84.895473		10.245047		0.916974		-16.508356		-32.476037		7.980948		-1.185658		21.659567		1.905632		3.426175		72.792750		-24.649540		13.813571		58.534998		97.870825		-35.935315		1.253865		47.851168		91.257810		-39.834780		60.169320		60.957641		112.986936		-43.755518		14.348761		86.748221		
0.538106		6.652693		-19.394434		98.319570		0.001914		1.669875		1.190413		77.887396		-9.198929		-10.065824		-73.330777		-4.843916		3.381813		10.454012		81.732509		-0.533615		10.341314		-83.037811		8.994201		0.644409		-15.034977		-32.512120		8.560447		-0.982808		21.380146		1.231427		3.494466		71.125646		-24.863436		13.624231		57.661596		98.774810		-34.552496		2.624639		46.888337		87.894590		-41.014984		57.849450		60.777492		115.690738		-43.320553		14.899031		87.322078		
0.542121		6.447501		-18.993538		98.115209		0.001676		1.665182		1.181057		77.000664		-9.061165		-10.022870		-71.423885		-5.823326		2.686149		10.498252		80.898606		-0.602140		10.050963		-81.071323		7.884678		0.306443		-14.747747		-32.710671		8.445756		-0.815854		20.934897		1.178512		3.407022		69.220154		-25.394697		13.442966		56.714022		98.610603		-33.881314		3.300068		46.846902		85.377643		-41.860828		57.086391		60.166036		115.775892		-43.447445		15.308621		87.249788		
0.546136		6.378401		-18.689223		98.008818		0.001486		1.659945		1.171566		76.152929		-8.956221		-10.154061		-69.548756		-6.565151		2.016737		10.518845		80.165990		-0.658604		9.920230		-79.134424		7.016368		0.036192		-14.446023		-32.767484		8.465826		-0.680582		20.489354		1.030343		3.334439		67.196137		-26.092231		13.488294		56.013678		98.682605		-32.972749		4.024045		46.903102		82.792869		-42.914522		56.358290		59.736035		116.348248		-43.468433		15.529569		87.320433		
0.550152		6.615351		-18.327250		98.037128		0.000940		1.654765		1.161943		75.136512		-8.766220		-10.541559		-67.566551		-7.694265		1.031586		10.956473		79.462894		-0.750310		10.087453		-77.238210		5.500013		-0.236032		-12.823779		-32.870657		8.942210		-0.635378		20.044670		0.556789		3.413475		65.353095		-26.369122		13.091981		55.303503		100.066979		-30.399817		5.618246		46.155029		78.942447		-44.101779		53.206092		59.633409		119.038326		-42.603444		15.945196		87.739457		
0.554167		6.392245		-17.938529		97.911523		0.000721		1.649431		1.152316		74.175510		-8.729062		-10.505886		-65.749728		-8.624415		0.277058		10.890244		78.522794		-0.797466		9.771819		-75.227147		4.468419		-0.583194		-12.531407		-32.989201		8.780918		-0.539395		19.501806		0.693155		3.312561		63.202421		-27.258283		13.188000		54.653533		100.028970		-29.247662		6.293344		46.300952		76.179846		-44.888585		52.075514		58.945769		119.147931		-42.821355		16.259916		87.701997		
0.558182		6.531044		-17.661069		97.941665		0.000381		1.643541		1.142482		73.230712		-8.631792		-10.866904		-63.901035		-9.457100		-0.534429		10.954533		77.787622		-0.900995		9.805899		-73.298333		3.381030		-0.904283		-11.447470		-32.972151		9.092313		-0.532462		19.096001		0.333340		3.386472		61.086997		-27.851368		12.978904		54.257055		101.247450		-26.954304		7.502338		45.970586		72.445742		-46.055028		49.372408		58.752934		121.123518		-42.392240		16.208623		88.243928		
0.562197		6.508085		-17.363894		97.907163		0.000133		1.637579		1.132622		72.284574		-8.563191		-11.048813		-62.110849		-10.278576		-1.322327		10.853307		76.945384		-0.990979		9.667847		-71.329345		2.349749		-1.341584		-10.720051		-32.990427		9.195711		-0.528298		18.716638		0.136414		3.398071		58.857834		-28.651561		12.939220		53.976197		101.993995		-25.085649		8.412753		45.816393		68.826273		-47.115036		46.939391		58.452521		122.268202		-42.334657		16.163154		88.600337		
